<?xml version="1.0" standalone="no"?>
<!DOCTYPE svg PUBLIC "-//W3C//DTD SVG 20010904//EN"
 "http://www.w3.org/TR/2001/REC-SVG-20010904/DTD/svg10.dtd">
<svg version="1.0" xmlns="http://www.w3.org/2000/svg"
 width="90.000000pt" height="90.000000pt" viewBox="0 0 90.000000 90.000000"
 preserveAspectRatio="xMidYMid meet">
<metadata>
Created by potrace 1.14, written by Peter Selinger 2001-2017
</metadata>
<g transform="translate(0.000000,90.000000) scale(0.100000,-0.100000)"
fill="#000000" stroke="none">
<path d="M518 882 c-60 -17 -71 -29 -83 -96 l-7 -36 -112 0 c-124 0 -136 -5
-136 -57 l0 -33 271 0 270 0 -3 43 -3 42 -112 3 c-62 1 -113 7 -113 12 0 5 4
20 9 34 8 19 21 27 65 36 41 8 57 16 62 32 7 22 -10 39 -36 37 -8 -1 -41 -9
-72 -17z"/>
<path d="M213 563 c3 -21 9 -63 12 -93 4 -30 8 -70 11 -87 4 -37 16 -128 19
-158 1 -11 3 -36 4 -56 0 -20 10 -44 21 -57 20 -21 29 -22 168 -22 81 0 152 4
158 8 21 14 32 47 39 117 3 39 8 79 10 90 3 11 7 47 10 79 3 33 7 73 10 90 2
17 7 52 10 79 l6 47 -241 0 -242 0 5 -37z m141 -158 c8 -22 -4 -45 -24 -45
-23 0 -37 39 -19 51 21 13 36 11 43 -6z m241 -6 c7 -21 -7 -39 -32 -39 -18 0
-27 41 -12 51 23 14 37 10 44 -12z m-85 -79 c0 -17 -39 -50 -60 -50 -21 0 -60
33 -60 50 0 6 27 10 60 10 33 0 60 -4 60 -10z"/>
</g>
</svg>
